<svg width="224" height="208" viewBox="0 0 224 208" fill="none" xmlns="http://www.w3.org/2000/svg">
<g filter="url(#filter0_d_157_27967)">
<rect x="8" y="8" width="208" height="192" rx="12" fill="white" shape-rendering="crispEdges"/>
<path d="M57.778 113.405C56.851 113.405 56.0365 113.234 55.3345 112.892C54.6325 112.541 54.0835 112.05 53.6875 111.42C53.3005 110.781 53.107 110.03 53.107 109.166C53.107 108.437 53.2915 107.78 53.6605 107.195C54.0295 106.601 54.601 106.11 55.375 105.723C56.158 105.336 57.1615 105.08 58.3855 104.954C59.6095 104.819 61.081 104.837 62.8 105.008L62.854 107.06C61.63 106.889 60.577 106.817 59.695 106.844C58.813 106.871 58.0885 106.983 57.5215 107.181C56.9635 107.37 56.5495 107.627 56.2795 107.951C56.0185 108.266 55.888 108.63 55.888 109.044C55.888 109.692 56.1175 110.192 56.5765 110.543C57.0445 110.894 57.6835 111.069 58.4935 111.069C59.1865 111.069 59.8075 110.943 60.3565 110.691C60.9055 110.439 61.3375 110.084 61.6525 109.625C61.9765 109.166 62.1385 108.626 62.1385 108.005V104.454C62.1385 103.86 62.0125 103.347 61.7605 102.915C61.5085 102.474 61.126 102.132 60.613 101.889C60.1 101.646 59.461 101.525 58.696 101.525C57.994 101.525 57.301 101.633 56.617 101.849C55.933 102.056 55.2805 102.384 54.6595 102.834L53.8225 100.647C54.6595 100.08 55.5325 99.68 56.4415 99.446C57.3505 99.212 58.2235 99.095 59.0605 99.095C60.3025 99.095 61.3645 99.293 62.2465 99.689C63.1375 100.076 63.8215 100.665 64.2985 101.457C64.7755 102.24 65.014 103.23 65.014 104.427V113H62.341V111.42C61.891 112.059 61.2655 112.55 60.4645 112.892C59.6635 113.234 58.768 113.405 57.778 113.405ZM68.963 113V99.635H71.933V101.471C72.293 100.949 72.707 100.526 73.175 100.202C73.643 99.869 74.138 99.626 74.66 99.473C75.182 99.311 75.713 99.23 76.253 99.23C77.342 99.23 78.2465 99.4685 78.9665 99.9455C79.6955 100.422 80.2085 101.034 80.5055 101.781C81.1715 100.809 81.9455 100.143 82.8275 99.7835C83.7095 99.4145 84.596 99.23 85.487 99.23C86.72 99.23 87.7055 99.473 88.4435 99.959C89.1815 100.445 89.7125 101.07 90.0365 101.835C90.3695 102.6 90.536 103.388 90.536 104.198V113H87.566V105.062C87.566 104.135 87.3095 103.388 86.7965 102.821C86.2925 102.245 85.5545 101.957 84.5825 101.957C83.9435 101.957 83.372 102.096 82.868 102.375C82.364 102.654 81.9635 103.041 81.6665 103.536C81.3785 104.022 81.2345 104.585 81.2345 105.224V113H78.2645V105.062C78.2645 104.135 78.0125 103.388 77.5085 102.821C77.0045 102.245 76.262 101.957 75.281 101.957C74.651 101.957 74.0795 102.096 73.5665 102.375C73.0625 102.654 72.662 103.041 72.365 103.536C72.077 104.022 71.933 104.585 71.933 105.224V113H68.963ZM100.628 113.405C99.2326 113.405 97.9861 113.086 96.8881 112.446C95.7991 111.798 94.9441 110.939 94.3231 109.868C93.7021 108.788 93.3916 107.604 93.3916 106.317C93.3916 105.363 93.5671 104.463 93.9181 103.617C94.2781 102.762 94.7821 102.006 95.4301 101.349C96.0871 100.692 96.8566 100.175 97.7386 99.797C98.6206 99.419 99.5881 99.23 100.641 99.23C102.036 99.23 103.278 99.554 104.367 100.202C105.465 100.841 106.325 101.7 106.946 102.78C107.567 103.851 107.877 105.03 107.877 106.317C107.877 107.262 107.697 108.162 107.337 109.017C106.986 109.872 106.487 110.628 105.839 111.285C105.191 111.942 104.426 112.46 103.544 112.838C102.662 113.216 101.69 113.405 100.628 113.405ZM100.628 110.772C101.456 110.772 102.189 110.592 102.828 110.232C103.476 109.863 103.985 109.346 104.354 108.68C104.723 108.014 104.907 107.226 104.907 106.317C104.907 105.408 104.723 104.621 104.354 103.955C103.985 103.28 103.476 102.762 102.828 102.402C102.189 102.042 101.456 101.862 100.628 101.862C99.7996 101.862 99.0616 102.042 98.4136 102.402C97.7746 102.762 97.2706 103.28 96.9016 103.955C96.5416 104.621 96.3616 105.408 96.3616 106.317C96.3616 107.226 96.5461 108.014 96.9151 108.68C97.2841 109.346 97.7881 109.863 98.4271 110.232C99.0751 110.592 99.8086 110.772 100.628 110.772ZM119.865 113.405C117.903 113.405 116.188 113 114.721 112.19C113.254 111.38 112.111 110.237 111.292 108.761C110.482 107.276 110.077 105.543 110.077 103.563C110.077 102.123 110.316 100.805 110.793 99.608C111.279 98.402 111.958 97.358 112.831 96.476C113.713 95.594 114.753 94.91 115.95 94.424C117.147 93.938 118.461 93.695 119.892 93.695C121.332 93.695 122.574 93.875 123.618 94.235C124.671 94.595 125.589 95.108 126.372 95.774L124.806 98.2445C124.212 97.6955 123.519 97.286 122.727 97.016C121.935 96.746 121.062 96.611 120.108 96.611C119.055 96.611 118.105 96.773 117.259 97.097C116.413 97.421 115.689 97.8845 115.086 98.4875C114.492 99.0815 114.033 99.806 113.709 100.661C113.394 101.507 113.236 102.465 113.236 103.536C113.236 104.994 113.52 106.241 114.087 107.276C114.663 108.311 115.473 109.103 116.517 109.652C117.57 110.192 118.812 110.462 120.243 110.462C121.197 110.462 122.115 110.322 122.997 110.043C123.888 109.755 124.72 109.292 125.494 108.653L126.898 111.204C125.989 111.915 124.95 112.46 123.78 112.838C122.619 113.216 121.314 113.405 119.865 113.405ZM130.078 113V94.1H137.22C138.534 94.1 139.668 94.3295 140.622 94.7885C141.585 95.2385 142.327 95.882 142.849 96.719C143.38 97.556 143.646 98.5505 143.646 99.7025C143.646 100.638 143.443 101.466 143.038 102.186C142.642 102.906 142.084 103.5 141.364 103.968C140.644 104.427 139.812 104.738 138.867 104.9L144.564 113H140.905L135.681 105.373H133.102V113H130.078ZM133.102 102.861H136.72C137.944 102.861 138.894 102.6 139.569 102.078C140.253 101.556 140.595 100.809 140.595 99.8375C140.595 98.8385 140.289 98.06 139.677 97.502C139.074 96.944 138.16 96.665 136.936 96.665H133.102V102.861ZM148.008 113V94.1H150.937L158.646 106.641L157.471 106.655L164.896 94.1H167.772V113H164.815L164.856 98.123L165.436 98.3255L159.01 108.923H156.796L150.249 98.3255L150.735 98.123L150.775 113H148.008Z" fill="black"/>
</g>
<defs>
<filter id="filter0_d_157_27967" x="0" y="0" width="224" height="208" filterUnits="userSpaceOnUse" color-interpolation-filters="sRGB">
<feFlood flood-opacity="0" result="BackgroundImageFix"/>
<feColorMatrix in="SourceAlpha" type="matrix" values="0 0 0 0 0 0 0 0 0 0 0 0 0 0 0 0 0 0 127 0" result="hardAlpha"/>
<feOffset/>
<feGaussianBlur stdDeviation="4"/>
<feComposite in2="hardAlpha" operator="out"/>
<feColorMatrix type="matrix" values="0 0 0 0 0.13546 0 0 0 0 0.155092 0 0 0 0 0.18454 0 0 0 0.12 0"/>
<feBlend mode="normal" in2="BackgroundImageFix" result="effect1_dropShadow_157_27967"/>
<feBlend mode="normal" in="SourceGraphic" in2="effect1_dropShadow_157_27967" result="shape"/>
</filter>
</defs>
</svg>
